<svg xmlns="http://www.w3.org/2000/svg" width="24.098" height="27.738" viewBox="0 0 24.098 27.738"><defs><style>.a{fill:#707070;}</style></defs><path class="a" d="M15.025.023C16.539,0,18.042.012,19.544,0a7.2,7.2,0,0,0,2.023,4.819,8.151,8.151,0,0,0,4.9,2.069v4.658a12.371,12.371,0,0,1-4.854-1.121A14.28,14.28,0,0,1,19.741,9.35c-.012,3.375.012,6.75-.023,10.113a8.828,8.828,0,0,1-1.56,4.554,8.611,8.611,0,0,1-6.83,3.71,8.427,8.427,0,0,1-4.715-1.19,8.715,8.715,0,0,1-4.218-6.6c-.023-.578-.035-1.156-.012-1.722a8.7,8.7,0,0,1,10.09-7.72c.023,1.711-.046,3.421-.046,5.132a3.965,3.965,0,0,0-5.062,2.45A4.585,4.585,0,0,0,7.2,19.937a3.933,3.933,0,0,0,4.045,3.317,3.883,3.883,0,0,0,3.2-1.861,2.667,2.667,0,0,0,.474-1.225c.116-2.069.069-4.126.081-6.195.012-4.658-.012-9.3.023-13.95Z" transform="translate(-2.369)"/></svg>