<svg xmlns="http://www.w3.org/2000/svg" width="114.081" height="175.713" viewBox="0 0 114.081 175.713"><defs><style>.a{fill:#ffaf8d;}.b{fill:#f3d9cf;}.c{fill:none;stroke:#000;stroke-linecap:round;stroke-miterlimit:10;stroke-width:6px;}</style></defs><g transform="translate(-2386.124 128.745)"><g transform="translate(2478.857 -128.745)"><path class="a" d="M2666.345-128.745" transform="translate(-2666.345 128.745)"/></g><g transform="translate(2386.124 -109.368)"><g transform="translate(0 0)"><path class="b" d="M2432.114-67.995c3.754,4.069-2.295,10.843-5.422,28.467-4.32,24.347,3,35.224-3.615,40.215-7.212,5.443-24.784-.8-32.533-12.652-10.13-15.494-1.293-37.238,10.844-47.9C2411.343-68.6,2427.3-73.21,2432.114-67.995Z" transform="translate(-2386.124 70.192)"/></g><g transform="translate(47.18 17.604)"><path class="a" d="M2569.433-9.078c-1.989-6.948-21.735-11.976-32.61-3.375-9.318,7.369-8.259,21.686-7.907,26.45,1.127,15.245,9.138,17.27,12.572,33.3,4.25,19.834-8.559,40.416-2.915,45.168,7,5.892,32.43-13.863,44.68-29.991,15.9-20.938,15.419-53.153,4.347-59.219-8.267-4.529-22.274,5.61-24.473,2.085C2561.338,2.47,2571-3.6,2569.433-9.078Z" transform="translate(-2528.693 16.997)"/></g><g transform="translate(5.984 8.546)"><path d="M2450.938,43.126c-6.554,0-11.728-4.624-16.063-8.96a2.4,2.4,0,0,1-.614-2.854c1.031-1.963,3.89-4.1,6.414-5.983,1.181-.883,2.3-1.717,2.995-2.368,1.884-1.761,3.905-.641,5.381.176a6.455,6.455,0,0,0,1.658.747,4.069,4.069,0,0,0,2.592-.805l.239-.132a12.011,12.011,0,0,1-.733-3.971,10.389,10.389,0,0,1-5.1-.805h0a4.422,4.422,0,0,1-3.8-.19,7.026,7.026,0,0,1-3.479-4.337,3.781,3.781,0,0,1,.47-2.892,2.318,2.318,0,0,1,.146-.208c.693-.885,5.073-7.463,5.586-10.543,1.345-8.651.1-16.522-2.19-25.675-1.174-5.03-3.268-11.175-9.122-14.2a25.817,25.817,0,0,0-3.468-1.344c-7.351-2.689-16.026-.619-22.672,5.394a9.53,9.53,0,0,0-2.918,5.075c-.3,1.925.256,3.784,1.792,6a.552.552,0,0,0,.04.051c3.7,4.114,7.366,6.681,11.547,8.074,3.828,1.218,12.479,1.594,16.041-3a.992.992,0,0,1,1.393-.176.992.992,0,0,1,.176,1.393c-2.35,3.03-6.2,4.071-9.009,4.411a23.277,23.277,0,0,1-9.215-.744c-4.533-1.511-8.473-4.255-12.412-8.639a2.457,2.457,0,0,1-.192-.243,10.245,10.245,0,0,1-2.119-7.461,11.587,11.587,0,0,1,3.489-6.168l.035-.033c7.2-6.522,16.654-8.75,24.679-5.814a27.441,27.441,0,0,1,3.714,1.449c6.587,3.407,8.885,10.076,10.152,15.507,2.343,9.372,3.619,17.465,2.22,26.456-.67,4.021-5.932,11.387-5.984,11.453l-.02.027a1.787,1.787,0,0,0-.232,1.366,5.007,5.007,0,0,0,2.442,3.044c.052.026.1.051.156.073q-.407-.385-.8-.827c-1.527-1.706-.708-2.751-.421-3.03,1.074-1.044,3.488-.524,4.712.635a2.937,2.937,0,0,1,.643,3.516,9.142,9.142,0,0,0,3.91.4,8.144,8.144,0,0,1,.3-1.088c.751-2.129,2.231-3.454,3.958-3.544a2.755,2.755,0,0,1,2.671,1.4,2.188,2.188,0,0,1-.467,2.449,9.839,9.839,0,0,1-4.663,2.5,9.919,9.919,0,0,0,.58,3.48,4.065,4.065,0,0,1,3.57.962c6.728,6.728,6.4,7.825,6.209,8.481a1.265,1.265,0,0,1-.968.883c-1.788.383-6.269-3.2-8.445-5.741a11.993,11.993,0,0,1-1.379-1.995l-.1.057a5.732,5.732,0,0,1-3.911,1.019,7.818,7.818,0,0,1-2.26-.963c-1.554-.86-2.313-1.164-3.063-.462-.777.726-1.936,1.592-3.162,2.508-2.238,1.672-5.022,3.751-5.844,5.316-.045.086.04.306.26.527,4.054,4.054,8.865,8.378,14.66,8.378h.018c2.16,0,7.532-.68,12.758-6.579-2.136-.16-6.25-.256-9.722-.338-7.724-.182-12.5-.326-13.65-.8a1.141,1.141,0,0,1-.759-1.306c.141-.634.537-1.157,4.153-1.626a39.349,39.349,0,0,1,6.683-.295,57.164,57.164,0,0,1,11.208,2.24l.1.027c4.33.186,4.438.417,4.711,1a1.04,1.04,0,0,1-.127,1.092c-2.023,2.574-7.567,8.563-15.347,8.575Zm5.325-19.047a9.782,9.782,0,0,0,.988,1.385,23.517,23.517,0,0,0,5.133,4.4,54.39,54.39,0,0,0-4.842-5.326A1.963,1.963,0,0,0,2456.264,24.079Zm1.17-9.76-.075,0c-.884.046-1.692.854-2.169,2.166a6.841,6.841,0,0,0,2.8-1.632c.123-.135.159-.236.146-.264A.823.823,0,0,0,2457.434,14.318Zm-12.036-.481a3.222,3.222,0,0,0,.235.291,9.979,9.979,0,0,0,1.686,1.527.9.9,0,0,0-.092-.993A2.639,2.639,0,0,0,2445.4,13.837Z" transform="translate(-2404.206 44.368)"/></g><g transform="translate(43.774 63.911)"><path class="c" d="M2518.4,122.932" transform="translate(-2518.401 -122.932)"/></g><g transform="translate(10.189 35.44)"><path d="M2417.9,42.688a.993.993,0,0,1-.808-1.569l2.711-3.8a.993.993,0,0,1,1.617,1.153l-2.711,3.8A.991.991,0,0,1,2417.9,42.688Z" transform="translate(-2416.913 -36.899)"/></g><g transform="translate(16.165 37.341)"><path d="M2435.963,49.044a.994.994,0,0,1-.938-1.318l1.529-4.413a.993.993,0,1,1,1.876.65l-1.528,4.413A.994.994,0,0,1,2435.963,49.044Z" transform="translate(-2434.97 -42.644)"/></g><g transform="translate(22.597 38.762)"><path d="M2455.4,53.584l-.068,0a.993.993,0,0,1-.923-1.058l.316-4.66a.993.993,0,1,1,1.981.135l-.316,4.659A.993.993,0,0,1,2455.4,53.584Z" transform="translate(-2454.408 -46.939)"/></g><g transform="translate(29.003 38.812)"><path d="M2475.768,53.636a.992.992,0,0,1-.968-.778l-1.011-4.56a.993.993,0,1,1,1.938-.429l1.011,4.56a.994.994,0,0,1-.97,1.208Z" transform="translate(-2473.765 -47.09)"/></g><g transform="translate(34.683 37.95)"><path d="M2493.962,50.674a.993.993,0,0,1-.894-.56l-2.04-4.2a.993.993,0,1,1,1.787-.867l2.04,4.2a.993.993,0,0,1-.893,1.427Z" transform="translate(-2490.928 -44.486)"/></g><g transform="translate(28.681 66.592)"><circle cx="1.817" cy="1.817" r="1.817"/></g><g transform="translate(52.037 131.164)"><circle cx="1.817" cy="1.817" r="1.817"/></g><g transform="translate(4.667 59.508)"><path d="M2488.066,206.455a.988.988,0,0,1-.587-.193c-.57-.419-1.188-.853-1.841-1.313-4.273-3.006-10.125-7.122-14.112-15.068-5.877-11.714-5.18-24.552-3.3-33.857a32.984,32.984,0,0,1-8.46,5.76c-3.849,1.573-7.483,3.059-12.134,2.473-4.183-.526-10.168-2.966-16.421-6.7a76.7,76.7,0,0,1-17.292-13.886c-8.612-9.553-13.13-23.8-13.684-33a.993.993,0,1,1,1.982-.119c.534,8.862,4.885,22.589,13.177,31.787,9.5,10.538,24.745,18.967,32.486,19.94,4.131.52,7.377-.806,11.135-2.341,2.707-1.106,6.281-3.755,9.982-7.324,2.607-10.39,7.157-19.2,10.417-23.131,1.585-1.914,2.819-2.666,3.88-2.363l.159.046.136.094c.907.631,1.929,1.919,1.648,4.465-.441,3.989-4.1,10.314-9.778,16.921-1.535,1.785-3.111,3.464-4.676,4.995-2.75,11.406-2.982,24.369,2.524,35.342,3.762,7.5,9.15,11.289,13.479,14.335.663.466,1.288.906,1.875,1.337a.993.993,0,0,1-.588,1.793ZM2482.7,129.1c-.766.356-2.958,2.591-5.775,8a72.792,72.792,0,0,0-5.083,12.621q1.059-1.14,2.108-2.358c5.35-6.221,8.917-12.292,9.31-15.845A2.744,2.744,0,0,0,2482.7,129.1Zm.149-.049" transform="translate(-2400.228 -109.627)"/></g></g></g></svg>