<svg xmlns="http://www.w3.org/2000/svg" width="713.723" height="792.615" viewBox="0 0 713.723 792.615"><defs><style>.a{fill:#ffc4ad;}.b{fill:#ffd7a0;opacity:0.31;}.c{fill:#222021;}.d{fill:#252222;}.e{fill:none;}</style></defs><g transform="translate(-1028.35 -248.809)"><path class="a" d="M726.1-77.24c-.565,21.706-2.161,42.713-4.179,63.707-1.9,19.754-4.332,39.438-7.583,59-4.691,28.242-10.921,56.167-17.69,83.983-5.342,21.955-10.795,43.86-19.3,64.871-8.993,22.231-21.267,42.145-40.635,56.952C621.385,263,604.088,269.238,584.7,268.387c-17.071-.748-31.672-8.088-44.924-18.428-17.969-14.026-32.211-31.43-45.286-49.9-29.136-41.147-49.2-86.719-65.32-134.193A630.45,630.45,0,0,1,408.249-13.54a392.319,392.319,0,0,1-7.417-94.645c1.945-43.524,17.9-81.061,49.99-110.839,12.65-11.739,25.788-23.142,40.665-32.258,11.257-6.895,23.757-10.05,36.387-12.862,10.961-2.44,21.869-5.15,33.105-6.237a113.836,113.836,0,0,1,25.023.439c14.016,1.735,28.2,2.932,41.716,7.237,29.867,9.518,55.9,24.611,71.636,53.1,8.883,16.084,13.853,33.717,17.969,51.523,4.036,17.477,6.074,35.256,7.4,53.135C725.429-95.508,725.728-86.067,726.1-77.24Z" transform="translate(942.222 540.809) rotate(20)"/><path class="b" d="M288.326-189.064c-.2-48.441,13.638-90.489,41.677-127.461,12.7-16.74,27.477-31.841,46.283-42.092,31.085-16.941,62.138-16.272,93.051.662,19.756,10.824,35.866,25.793,50.13,43.049,18.787,22.726,32.756,48.218,44.368,75.154,7.321,16.987,14.208,34.114,19.051,52.011a347.171,347.171,0,0,1,9.712,47.663c5.23,41.9-3.465,80.855-25.734,116.589-24.921,39.985-61.2,65.2-105.93,78.407-19.253,5.682-38.984,6.478-58.42-.164-14.507-4.958-26.5-13.861-37.354-24.41-17.423-16.923-29.891-37.238-39.834-59.17a422.914,422.914,0,0,1-27.348-80.32,402.154,402.154,0,0,1-7.541-48.1C289.263-168.474,288.765-179.725,288.326-189.064Z" transform="translate(740.026 619.802)"/><path class="c" d="M851.618,147.74c2.033-5.056,4.915-9.113,9.8-11.32a.557.557,0,0,0,0-1.018c-4.885-2.207-7.767-6.264-9.8-11.32a.556.556,0,0,0-1.032,0c-2.011,5.053-4.744,9.111-9.6,11.317a.558.558,0,0,0,0,1.018c4.86,2.2,7.594,6.264,9.6,11.317A.555.555,0,0,0,851.618,147.74Z" transform="translate(825.038 208.145)"/><path class="c" d="M846.326,136.156c1.052-2.616,2.543-4.715,5.071-5.857a.288.288,0,0,0,0-.527c-2.528-1.142-4.019-3.241-5.071-5.857a.288.288,0,0,0-.534,0c-1.04,2.615-2.455,4.714-4.969,5.856a.289.289,0,0,0,0,.527c2.515,1.14,3.929,3.241,4.969,5.856A.287.287,0,0,0,846.326,136.156Z" transform="translate(859.038 332.145)"/><g transform="translate(-1567.244 296.25)"><g transform="translate(2595.594 -47.25)"><path class="d" d="M2934.924,246.784c.746-6.471.219-12.961.278-19.441a213.5,213.5,0,0,1,1.193-24.441c.318-2.525-.288-2.853-2.674-2.872-13.239-.109-26.5-.02-39.549-2.813a121.353,121.353,0,0,1-13.995-4.1c-1.362-.467-3.509-.885-2.594-3.121.8-1.948,2.465-1.064,3.817-.576,12.593,4.493,25.574,6.351,38.953,6.55,8.906.129,17.781.189,26.657-.517a48.671,48.671,0,0,0,14.392-3.648c7.813-3.141,11.241-9.363,12.752-17.086a170.155,170.155,0,0,0,3.061-32.76c-.01-7.842.606-15.7-.745-23.5-1.759-10.148-7.4-18.6-12.335-27.343-3.658-6.49-6.858-13.2-10-19.938a8.225,8.225,0,0,1-.716-2.067A1.67,1.67,0,0,1,2954.793,67a1.573,1.573,0,0,1,1.968,1.1c5.427,12.872,13.22,24.521,19.491,36.965a45.3,45.3,0,0,1,4.84,19.362c.438,17.593.278,35.146-3.389,52.5-2.077,9.82-7.773,16.211-17.245,19.531a53.465,53.465,0,0,1-17.106,3.111c-2.465.03-3.19.974-3.4,3.28-1.143,12.544-.725,25.1-.626,37.651-.109,13.468-.517,26.956,1.362,40.334,1.471,10.456,6.083,19.352,14.869,25.624a137.641,137.641,0,0,0,20.5,11.878c9.989,4.8,20.515,8.329,30.7,12.653-.258,1.551-1.451,1.193-2.435,1.1-.726-.07-1.372-.348-1.849.537-1.66,3.041,1.084,7.952,4.612,8.22q1.4,2.8,2.813,5.606c8.31,16.33,14.015,33.605,18.8,51.178,2.535,9.323,2.773,19.024,3.986,28.566a24.7,24.7,0,0,0,6.341,14.015c6.968,7.733,13.995,15.446,19.79,24.1,6,8.965,11.062,18.368,11.778,29.411a134.571,134.571,0,0,1-6.381,50.731c-3.31,10.148-7.375,20.078-15.356,27.81a5.153,5.153,0,0,0-1.193,2.853c-.358,1.68-.288,2.9,2.107,2.316,2.793-.676,5.417.03,7.991,1.2,4.323,1.968,8.647,3.946,12.782,6.3a28.9,28.9,0,0,0,8.777,3.509c4.025,1.57,8.051,3.131,12.066,4.721a24.807,24.807,0,0,1,12.454,10.7c6.2,10.337,12.8,20.455,17.394,31.657a28.221,28.221,0,0,1,1.829,8.876c.229,3.27-.974,6.093-4.046,7.554-1.58.755-1.769,1.62-1.8,3.1-.08,3.827-.239,7.693-5.1,8.926-1.3.328-.805,1.56-.9,2.405-.577,5.278-1.62,6.6-6.729,7.862-.805.2-.895.527-1.134,1.133-2.554,6.56-11.142,11-18.169,10.188-5.675-.656-8.727-4.344-11.629-8.309a296.389,296.389,0,0,1-21.628-34.689c-3.5-6.51-3.459-6.52-10.317-4.353-22.165,7.037-44.628,12.991-67.27,18.348-18.418,4.363-36.458,10.089-54.468,15.873q-12.21,3.921-24.431,7.773c-.189-1.59-1.173-.875-2.028-.726-1.312.219-2.554.209-2.435-1.67.438-.258.875-.527,1.312-.785,1.63-.427,3.29-.765,4.881-1.292,28.457-9.522,57.042-18.636,86.334-25.346,20.634-4.731,40.811-10.963,60.978-17.235a5.964,5.964,0,0,1,7.206,2.336,71.13,71.13,0,0,1,4.691,7.445,333.169,333.169,0,0,0,21.767,33.844c2.753,3.687,6.192,5.626,10.844,4.781a21.276,21.276,0,0,0,6.51-2.405c2.574-1.421,4.3-3.28,4.2-6.441-.07-2.216,1.083-3.439,3.389-2.713,3,.944,3.807-.755,4.125-3.081a22.054,22.054,0,0,0,.079-3.439c-.04-1.829.8-3.31,2.624-3.29,2.942.03,3.27-1.729,3.34-3.857.05-1.461-.04-2.932.03-4.393.06-1.481.676-2.8,2.256-3.022,3.32-.447,3.717-2.634,3.489-5.248a23.251,23.251,0,0,0-1.709-7.3c-4.692-11.033-11.1-21.121-17.394-31.289a19.567,19.567,0,0,0-9.452-8.041,165.408,165.408,0,0,0-16.877-6.033c-3.966-2.167-7.832-4.562-11.937-6.441-4.254-1.938-8.26-4.811-13.418-4.095a83.8,83.8,0,0,0-16.35,3.688c-5.964,2.087-11.7,4.831-17.672,6.908-15.187,5.268-30.892,8.687-46.576,12.146-15.505,3.24-31.17,3.031-46.795,1.61-16.022-1.461-31.746-5.288-47.789-6.709-9.919-.875-19.849-1.451-29.291,2.783-5.158,1.56-8.26,5.815-12.315,9.522-.616-2.256-1.153-4.125-1.65-6q-4.249-16.147-8.478-32.3c-3.718-14.919-7.246-29.888-11.868-44.558-3.359-10.665-8.031-20.9-10.824-31.766-8.538-33.158-14.452-66.862-21.43-100.348-.278-1.322-.765-2.962,1.074-3.429,1.978-.507,2.137,1.3,2.425,2.564,1.183,5.2,2.3,10.416,3.4,15.635,5.795,27.314,10.744,54.806,17.692,81.881a187.59,187.59,0,0,0,7.584,23.387,58.173,58.173,0,0,0,4.383-13.428,101.693,101.693,0,0,0,3.966-24.709c.686-16.629-.07-33.267-.129-49.9a152.706,152.706,0,0,0-2.544-26.19c-1.988-17.911-4.821-35.623-11.779-52.45-3.8-9.184-7.723-18.318-10.347-27.92.854-2.326-.656-8.667-2.405-9.85-.646-.437-1.531-.268-1.988-1.272-2.584-5.725-6.808-10.615-8.548-16.778-.428-1.531-.159-1.928,1.381-2.306,3.111-.765,3.27,1.7,3.946,3.638,1.243-1.193-.2-3.678,2.236-3.558,5.895.288,11.56-2.207,17.474-1.3,2.335.358,4.781-.507,7.047.616-.288.2-.566.408-.855.606-4.2,1.2-8.6,1.392-13.627,1.978,2.763,3.022,5.059,5.536,7.355,8.041,6.709,9.432,15.814,16.8,23.03,25.793q7.872,9.8,15.774,19.571c3.28,4.741,6.7,9.393,9.82,14.233,20.058,31.1,37,63.881,52.937,97.168,16.827,35.166,33.784,70.282,47.61,106.759,4.006,10.566,8.618,20.972,10.436,32.2.428,2.634,1.173,3.29,3.718,2.664,6.669-1.65,13.378-3.171,20.087-4.671,3.23-.726,6.769-.984,6.153-5.715a2.831,2.831,0,0,1,.338-1.2,121.317,121.317,0,0,0,6.829-29.918c2.833-25.157,5.437-50.353,6.451-75.659,1.153-28.794.865-57.47-5.129-85.916a435.687,435.687,0,0,0-20.455-69.139,3.721,3.721,0,0,0-2.266-2.346c-8.4-3.32-16.042-8.021-23.736-12.633-9.422-5.636-15.4-13.885-18.417-24.252-1.859-6.371-2.316-12.961-2.535-19.561C2935.351,260.987,2935.143,253.881,2934.924,246.784Z" transform="translate(-2596.693 46.558)"/><path class="d" d="M3156.288,193.949c.149,1.143-.258,2.4.646,3.856a5.52,5.52,0,0,0,.6-4.1c-.259-2.445.855-3.161,3.081-2.843l-.894,4.95a96.842,96.842,0,0,1-8.25,14.1c-12.166,18.139-18.547,38.326-21.926,59.646a225.814,225.814,0,0,0-2.207,48.216c.716,12.534-.7,24.858-1.4,37.273-1.133,19.75-1.551,39.529-1.859,59.3a305.26,305.26,0,0,1-9.343,71.087,169.179,169.179,0,0,0-5.348,49.449c.318,7.2,1.183,14.362,1.8,21.549-.159,4.383,1.65,8.319,2.853,12.4.437,1.5,1.053,2.952,1.54,4.443.378,1.143.577,2.366-.825,2.962-1.6.676-2.435-.457-2.853-1.66-1.362-3.936-2.584-7.922-3.867-11.888a62.4,62.4,0,0,0-4.175-16.917,374.751,374.751,0,0,1-18.179-56.675c-2.485-10.715-6.182-21.042-9.383-31.518-4.5-14.74-5.228-30.017-6.659-45.2a204.229,204.229,0,0,0-3.857-26.986c-3.061-13.3-10.655-23.686-21.817-31.269-11.311-7.693-22.822-15.237-36.349-18.855-.8-.209-1.551-.726-2.435-.388,1.073,2.236,2.137,4.433,3.19,6.64-3.539-.268-6.271-5.178-4.612-8.22.487-.885,1.124-.606,1.849-.537.984.1,2.187.447,2.435-1.1,14.819,3.489,27.055,11.947,39.489,20.028.527.348,1.054.7,1.571,1.044.238.05.487.1.725.159-.04-.278-.09-.557-.129-.835.755-2.057,1.491-4.125,2.266-6.172,5.079-13.388-.586-24.034-8.985-33.9-6.391-7.514-14.174-13.756-19.908-21.926-10.218-14.571-19.491-29.619-26.419-46.029-4.95-11.738-6.342-23.974-5.9-36.527.03-.934-.02-1.879-.04-2.813q2.177-11.495,4.354-23c.258-1.352.458-2.992,2.336-2.674,2.018.348,1.719,2.087,1.471,3.528-1.073,6.143-2.2,12.275-3.31,18.418-3.658,19.5,1.769,37.2,10.665,54.359a278.771,278.771,0,0,0,22.662,35.9c4.532,6.2,10.516,11.182,15.814,16.738a58.591,58.591,0,0,1,11.073,17.076c3.439,7.733,2.614,15.535-.447,22.91-2.286,5.5-2.276,9.323,2.405,13.776,9.512,9.045,12.047,21.34,13.935,33.645,1.591,10.347,2.435,20.783,3.141,31.22.984,14.412,4.443,28.238,9.4,41.785a108.288,108.288,0,0,1,3.856,14.541c3.718,17.334,9.86,33.943,15.218,50.79.278.865.626,1.71.944,2.555.338-.02.666-.03,1-.05,0-3.628-.07-7.256.01-10.884.437-18.736,4.4-36.935,8.787-55.054,3.409-14.1,4.8-28.417,5.457-42.879,1.242-27.274.726-54.627,3.22-81.851,1.521-16.609-.08-33.208.417-49.816.815-27.1,6.083-53.146,18.487-77.557a97.292,97.292,0,0,1,6.848-10.933A77.2,77.2,0,0,0,3156.288,193.949Z" transform="translate(-2597.987 45.879)"/><path class="d" d="M2767.473,292.064c11.987.119,23.835-1.729,35.742-2.644,2.584-.2,5.517-.3,7.6-2.435,1.531-.815,3.052-1.62,4.582-2.435.885,1.958-.457,3.2-1.7,4.194a2.273,2.273,0,0,0-1.044,2.048c-.427.2-.855.4-1.282.606-2.266-1.123-4.711-.258-7.047-.616-5.924-.9-11.589,1.59-17.474,1.3-2.445-.119-.994,2.366-2.236,3.558-.676-1.948-.835-4.413-3.946-3.638-1.541.378-1.819.775-1.382,2.306,1.74,6.172,5.974,11.063,8.548,16.778.458,1.014,1.342.845,1.988,1.272,1.759,1.183,3.27,7.524,2.405,9.85l-.6-.745c-2.535-6.928-6.61-13.011-10.754-19.044-.964-1.4-2.187-2.773-2.057-4.423.169-2.3-1.083-2.157-2.634-2.167-10.048-.07-20.1.109-30.126-.348-10.048-.457-20.077-1.292-30.146-1.024a23.207,23.207,0,0,0-11.977,3.588c-8.627,5.387-14.85,12.981-20.485,21.141-8.1,11.709-13.2,24.57-14.124,38.764-.6,9.194.407,18.388,1.431,27.542a177.365,177.365,0,0,0,6.49,32.224c.129.924.169,1.869.387,2.763,7.236,29.878,17.424,58.8,29.282,87.179,4.751,13.746,8.11,27.91,13.239,41.547,9.283,24.68,16.519,50.065,26.27,74.605a285.173,285.173,0,0,0,29.053,54.548,24.2,24.2,0,0,0,18.417,10.933c19.322,1.918,38.515.159,57.689-1.809a193.017,193.017,0,0,0,38.7-8.319c-.119,1.879,1.124,1.888,2.435,1.67.855-.149,1.839-.865,2.028.726l-.676.616c-9.194,2.4-18.129,5.715-27.592,7.117-23.924,3.548-47.888,5.993-72.14,4.025a28.884,28.884,0,0,1-22.8-13.547,299.165,299.165,0,0,1-29.361-55.8c-9.651-24.57-16.847-49.956-26.25-74.6-4.373-11.46-7.107-23.407-10.854-35.046-.407-1.272-.507-2.684-1.541-3.707-.636-1.65-1.272-3.31-1.928-4.95-9.6-24.212-18.468-48.673-25.256-73.83-1.213-4.522-1.8-9.214-3.757-13.528-.517-5.526-2.415-10.774-3.419-16.211-2.584-13.925-4.254-27.95-3.976-42.083.328-16.837,6.679-31.766,16.46-45.354,5.924-8.24,12.533-15.814,21.6-20.883a7.91,7.91,0,0,1,3.131-1.441c1.491,2.177,2.962.417,4.443-.308h-3.26c2.9-1.56,6.063-1.461,9.214-1.4a17.724,17.724,0,0,0,5.974-.05,8.48,8.48,0,0,1,4.175.02,3.1,3.1,0,0,0,2.117.1,4.192,4.192,0,0,1,2.743.159l-.05.06c-4.7,2.187-9.929.427-15.009,1.531a1.616,1.616,0,0,0,1.65.855q23.452.015,46.9.01C2766.261,293.287,2767.294,293.406,2767.473,292.064Z" transform="translate(-2596.016 45.24)"/><path class="d" d="M2839.976,35.195c-2.594,9.711-1.561,19.5-.656,29.282,1.919,20.7,2.356,41.358-2.644,61.764-2.574,10.5-8.359,19.352-14.939,27.761-.945,1.2-1.69,1.938-.149,3.538s.795,4.194,1.312,6.321c.755,3.151,1.859,5.248,5.715,4.582,2.425-.417,3.747.914,4.055,3.31.924,7.1,1.222,14.174-.547,21.2-.348,1.382-.388,3.3-2.495,2.9-2.187-.417-1.839-2.346-1.461-3.837a49.252,49.252,0,0,0,.9-17.434c-.129-1.262-.05-2.594-2.047-2.356-4.055.5-5.865-1.948-7.177-5.258-1-2.544-.875-5.3-1.709-8.449-2.763,2.882-5.576,4.94-7.544,7.991-5.785,8.965-10.894,18.368-18.805,25.9-8.379,7.971-18.239,13.528-28.536,18.517-9.7,4.711-18.6,10.417-25.167,19.143-10.814,14.362-12.524,35.871-3.638,50.363,3.608,5.884,8.21,10.267,16.341,9.532,5.4-.487,10.983-1.024,16.439.258-7.514.02-15.038.05-22.552.04-1.948,0-3.976.427-5.705-1.123-.586-.527-1.242-.1-2.047.457-1.461,1-3.449,1.541-4.88-.477l.05-.06c1.044-.06,2.077-.119,3.33-.189-.556-2.2-2.5-3.161-3.578-4.761a43.094,43.094,0,0,1-7.087-22.2c-.785-15.973,4.344-30.047,16.331-41.308,6.54-6.143,14.263-10.486,22.3-14.253,13.428-6.282,25.2-14.551,34.042-26.518,1.431-1.938,2.982-3.807,3.638-6.192.129-.219.417-.537.348-.636-.308-.487-.586-.109-.855.109-9.939,6.6-20.1,12.981-31.309,17.155-19.3,7.2-33.406,20.247-44.33,36.965-9.154,14.015-10.794,29.451-7.305,45.532a45.461,45.461,0,0,0,2.574,6.729c.487,1.213,1.014,2.495-.586,3.23-1.69.765-2.525-.378-3.151-1.71a50.3,50.3,0,0,1-4.512-19.422c-.994-20.754,7.564-37.531,21.718-52.083,9.949-10.228,21.25-18.219,34.877-23.4a130.632,130.632,0,0,0,39.6-24.083c15.665-13.726,25.5-30.564,27.383-51.834,1.541-17.424.736-34.679-.8-51.983a76.8,76.8,0,0,1,1.729-26.131c2.674-7.415,5.755-14.651,10.954-20.724,7.375-8.608,16.807-13.16,28.337-13.15a11.015,11.015,0,0,1,2.207.229c1.143.229,1.968.815,1.839,2.127-.149,1.481-1.223,1.491-2.335,1.392-9.005-.785-16.758,2.336-23.288,8.1C2846.6,16.787,2842.561,25.643,2839.976,35.195Z" transform="translate(-2596.299 46.974)"/><path class="d" d="M2828.547,24.91l-.288-.109-.288.129c-2.624.01-2.336-2.226-2.972-3.757l-.179-.1-.2.07c.269-.895.577-1.789.785-2.7a91.465,91.465,0,0,1,9.582-25.087c9.2-15.833,21.638-27.323,40.424-30.931.01-.487-.437-.785-.845-1.113-5.188-4.1-11.271-5.208-17.633-4.6-11.1,1.044-19.948,6.58-27.254,14.561-7.485,8.16-13.508,17.4-19.293,26.757-2,3.23-4.035,6.61-4.6,10.526-2.554,5.238-3.36,10.943-4.5,16.549-1.809,8.916-3.827,17.762-7.643,26.091a21.214,21.214,0,0,1-8.777,9.6c-1.332.775-2.743.875-3.578-.616-.785-1.411.2-2.564,1.342-3.091,5.9-2.733,7.823-8.18,9.761-13.617,3.369-9.482,4.761-19.451,7.1-29.192.626-2.614,2.018-5.039,1.988-7.812.3-.288.735-.517.865-.855,4.453-11.46,12.2-20.913,19.163-30.832a10.021,10.021,0,0,0,2.057-3.717c-1.65-.567-2.773.477-3.826,1.133a79.7,79.7,0,0,0-28.4,30.017c-.318.328-.636.666-.944.994-.865-1.153-1.093.924-1.839.348.169-1.382-.139-2.515-1.63-3.032a.371.371,0,0,0-.209-.437c1.67-.209,2.038-1.7,2.733-2.813A89.187,89.187,0,0,1,2813.4-28.385a50.841,50.841,0,0,1,17.185-7.842c2.077-.527,3.479-1.938,5.119-3.041,9.671-6.51,20-9.85,31.806-6.9a22.55,22.55,0,0,1,11.778,6.987,7.261,7.261,0,0,0,5.447,2.6,26.678,26.678,0,0,1,9.453,2.5c11.122,5.039,15.972,19.014,10.337,29.759a15.726,15.726,0,0,1-3.31,4.145c-1.968,1.859-2.147,4.324-1.958,6.848l.06-.05c-3.857-.537-3.857-.537-3.161-4.91,1.421-8.9-2.982-14.571-12.076-15.595-8.121-.924-15.208,1.809-21.817,6.113a56.514,56.514,0,0,0-20.753,24.411c-.567,1.232-1.272,2.405-1.938,3.588a1.821,1.821,0,0,1-2.7.726,1.658,1.658,0,0,1-.666-2.435c1.282-2.634,2.524-5.3,3.956-7.852,7.8-13.955,18.785-24.222,34.857-27.989,6.49-1.521,13-.9,18.925,2.932,3.688,2.385,5.109,5.9,5.854,10.158a8.308,8.308,0,0,0,2.733-4.94c1.62-10.993-2.654-20.336-15.585-23.238-15.655-3.519-27.671,3.041-37.859,13.438-11.57,11.818-17.9,26.449-20.565,42.63A4.729,4.729,0,0,0,2828.547,24.91Z" transform="translate(-2596.718 47.25)"/><path class="d" d="M2675.885,527.193c3.539,6.033,6.411,12.295,6.252,19.461-.288,12.981-6.908,22.881-17.135,29.918-7.087,4.88-15.655,4.652-23.686.835-2.187-1.034-4.2-2.405-6.3-3.628a62.761,62.761,0,0,1-12.186-12.693c-.925-1.272-1.819-2.664-.288-3.837,1.63-1.242,2.535.159,3.5,1.411,3.26,4.234,6.4,8.608,11.172,11.41a22.535,22.535,0,0,0,7.812,4.642c7.624,2.892,16.9.944,22.155-4.791a47.052,47.052,0,0,0,8.28-11.768c4.632-9.91,3.111-19.223-2.863-28.089-4.244-6.858-10.436-12.047-15.813-17.931-7.862-8.627-17.613-15-26.737-22.145a95.264,95.264,0,0,1-22.721-25.177c-7.216-11.738-10.059-24.719-10.417-38.326a127.332,127.332,0,0,1,2.7-29.629,17.229,17.229,0,0,0,.169-2.495c1.043-1.173.825-2.763,1.372-4.1.507-1.232,1.173-2.435,2.753-1.928,1.491.477,1.133,1.739.845,2.9-.616,2.535-1.163,5.079-1.739,7.614-.626,4.662-1.511,9.293-1.829,13.975-1.064,15.476-.239,30.772,6.848,45,6.639,13.319,16.758,23.9,28.844,32.393C2651.792,500.695,2664.3,513.427,2675.885,527.193Z" transform="translate(-2595.602 44.612)"/><path class="d" d="M2948.242,162.6c-8.26.636-14.422-1.183-20.078-4.85-1.858-1.2-2.833-2.674-.983-4.592,5.02-5.228,8.945-11.41,14.541-16.142,2.425-2.057,4.86-4.006,8.091-4.7,4.731-1.014,8.042.9,8.836,5.6.546,3.22,1.153,5.745,3.946,8.339,5.616,5.218,2.167,13.786-5.7,15.446A43.93,43.93,0,0,1,2948.242,162.6Z" transform="translate(-2597.597 46.163)"/><path class="d" d="M2628.565,589c5,7.783,9.731,16.231,20.416,16.967,9.224.636,17.106-3.081,23.715-9.433,6.312-6.063,8.956-13.488,8.767-22.065a14.851,14.851,0,0,1,.417-5.288,2.024,2.024,0,0,1,2.057-1.62c1.193.06,1.471,1.044,1.65,2,2.385,13.07-4.711,27.84-16.559,34.967a37.569,37.569,0,0,1-19.262,5.526c-6.332.079-11.44-2.674-15.625-7.2-2.276-2.465-4.4-5.049-6.6-7.584-2.674-4.831-5.447-9.611-6.888-15a14.631,14.631,0,0,1-.477-1.8c-.139-1.123-.417-2.405,1.183-2.783,1.58-.378,1.958.775,2.3,1.918a52.648,52.648,0,0,0,3.737,9.572A20.986,20.986,0,0,0,2628.565,589Z" transform="translate(-2595.742 43.525)"/><path class="d" d="M2813.557,290.531a2.272,2.272,0,0,1,1.044-2.048c1.242-.994,2.584-2.226,1.7-4.194l.119-.07c1.878.785,1.481-.557,1.471-1.541,2.962-4.512,5.725-9.114,6.282-14.631,1.918-6.133,2.4-12.474,2.743-18.825.089-1.56-.01-3.141.139-4.691.119-1.262-.169-3.041,1.859-3.032,2.067.01,1.75,1.749,1.759,3.041.03,2.6-.06,5.218-.06,7.832a12.57,12.57,0,0,0,.249,1.809c-1.481,5.785-1.6,11.818-3.32,17.553-2,6.64-4.98,12.663-10.715,17A7.26,7.26,0,0,1,2813.557,290.531Z" transform="translate(-2596.915 45.5)"/><path class="d" d="M2899.963,7c3.031.358,5.705-1.073,8.528-1.7,8.329-1.839,14.482.616,18.806,7.912,1.232,2.067,2.335,4.214,3.379,6.391.686,1.431,1.382,3.25-.537,4.1s-2.345-1.044-3.011-2.336c-1.491-2.882-2.694-5.934-4.82-8.449-3.171-3.747-7.037-5.566-12.086-4.184-2.346.646-4.751,1.044-7.117,1.64-1.173.3-2.276.567-3.29-.328-1.243-1.1.338-2.057.189-3.1C2900.023,6.946,2899.963,7,2899.963,7Z" transform="translate(-2597.434 46.935)"/><path class="d" d="M3170.676,423.447a.352.352,0,0,1,.04-.547C3171.163,423.119,3171.193,423.307,3170.676,423.447Z" transform="translate(-2599.077 44.402)"/><path class="d" d="M2785.8.81c1.491.517,1.8,1.65,1.63,3.032l-.01.01c-1-.646-2.018-.04-3,.03-2.614.2-3.161,1.282-2.008,3.638l.03-.05c-5.467,1.809-10.049,5.308-15.178,7.773-13.229,6.351-26.7,12.206-39.539,19.4-24.391,13.677-40.146,34.122-49.876,59.666a143.587,143.587,0,0,0-8.955,61.664c1.62,23.348-6.58,42.193-23.447,58.146-14.194,13.418-27.224,27.91-36.8,45.006-6.63,11.848-10.5,24.491-8.469,38.237a56.3,56.3,0,0,0,7.106,20.018c2.783,4.811,5.387,9.721,8.051,14.6.517.944.984,1.988-.1,2.833-1.153.9-2.177.4-3.071-.537a3.8,3.8,0,0,1-.606-.726c-6.292-12.136-14.432-23.5-15.724-37.7-1.123-12.375,1.74-23.964,7.276-34.877A149.968,149.968,0,0,1,2627.8,226.5c7.4-7.912,15.456-15.267,22.443-23.507,9.641-11.391,15.2-24.491,14.551-39.778-.7-16.44-.507-32.89,3.012-49.071,5.507-25.405,16.42-48.107,35.3-66.584,10.049-9.83,22.274-16.658,34.748-22.94,9.333-4.7,19.044-8.687,28.377-13.388C2772.847,7.917,2779.576,4.826,2785.8.81Z" transform="translate(-2595.594 46.959)"/><path class="d" d="M2824.833,21.59c.626,1.531.348,3.757,2.973,3.757-2.127,9.492-4.125,19.014-6.4,28.466-2.276,9.482-3.2,19.193-5.089,28.735-3.111,15.744-7.127,31.21-13.955,45.851a90.5,90.5,0,0,1-11.808,18.547c-6.371,7.882-15.376,11.569-24.66,14.75-3.757,1.282-7.952,1.531-10.963,4.592a1.514,1.514,0,0,1-2.057.01,2.093,2.093,0,0,1-.646-2.554c.547-1.5,1.849-2.167,3.19-2.853,3.619-1.849,7.614-2.594,11.441-3.747,13.328-4.016,22.274-12.762,28.734-24.57,8.31-15.187,13.16-31.518,16.112-48.385,3.578-20.416,7.692-40.7,12.5-60.859A15.412,15.412,0,0,1,2824.833,21.59Z" transform="translate(-2596.542 46.833)"/><path class="d" d="M2788.438,3.856c.745.576.984-1.5,1.839-.348-3.509,7.127-7.216,14.164-10.248,21.529a219.778,219.778,0,0,0-13.468,44.628c-.249,1.411-.427,3.29-2.5,2.882-2.137-.417-1.808-2.3-1.5-3.847a243.331,243.331,0,0,1,9.92-35.593c3.141-8.767,7.306-17.076,10.983-25.6l-.03.05c4.035.139,4.6-.278,5.01-3.7Z" transform="translate(-2596.604 46.944)"/><path class="d" d="M2707.83,292.03h3.26c-1.481.726-2.952,2.485-4.443.308C2707.044,292.239,2707.432,292.139,2707.83,292.03Z" transform="translate(-2596.267 45.194)"/><path class="d" d="M2723.081,290.578a18.257,18.257,0,0,1-5.974.05A14.573,14.573,0,0,1,2723.081,290.578Z" transform="translate(-2596.33 45.205)"/><path class="d" d="M2729.434,290.7a3.1,3.1,0,0,1-2.117-.1A2.279,2.279,0,0,1,2729.434,290.7Z" transform="translate(-2596.392 45.204)"/><path class="d" d="M2696.76,575.329c-.318,4.612-.686,9.423-2.187,14.044a28.646,28.646,0,0,1-1.749,4.016c-.547,1.083-1.352,2-2.753,1.4-1.491-.636-1.153-1.928-.656-2.942,2.216-4.523,2.843-9.363,3.379-14.273a20.882,20.882,0,0,0-1.2-10.158c-.507-1.282-1.143-2.862.547-3.548,2.018-.815,2.356,1.093,2.932,2.4A23.639,23.639,0,0,1,2696.76,575.329Z" transform="translate(-2596.16 43.549)"/><path class="d" d="M2965.956,525.324a52.3,52.3,0,0,1-2.445,17.732c-.467,1.491-.845,3.061-2.087,4.165a2.151,2.151,0,0,1-2.882.3,1.642,1.642,0,0,1-.447-2.246c4.88-9.552,4.254-19.69,2.912-29.789a109.85,109.85,0,0,0-15.167-43.306c-10.1-16.44-21.986-31.548-38.038-42.938-1.978-1.4-3.856-2.942-5.834-4.353-1.034-.745-2.455-1.362-1.491-2.9,1.034-1.65,2.425-.855,3.568-.04,6.511,4.681,13.07,9.353,18.826,14.919,20.326,19.7,34.808,42.779,40.9,70.53C2965.071,513.307,2966.354,519.271,2965.956,525.324Z" transform="translate(-2597.439 44.413)"/><path class="d" d="M2732.075,290.919c1.431,2.018,3.419,1.481,4.88.477.815-.557,1.461-.984,2.047-.457,1.719,1.541,3.757,1.113,5.705,1.123,7.514.02,15.039-.02,22.553-.04a.5.5,0,0,1,.537.08c-.179,1.342-1.213,1.223-2.167,1.223q-23.452,0-46.9-.01a1.6,1.6,0,0,1-1.65-.855C2722.146,291.346,2727.374,293.105,2732.075,290.919Z" transform="translate(-2596.33 45.202)"/><path class="d" d="M3178.929,237.879c.209-.01.418-.03.626-.03,1.471-.05,3.359-.934,3.886,1.332.487,2.087-1.64,1.978-2.733,2.723-4.224.954-8.489,1.759-12.653,2.912-8.25,2.276-13.935,7.614-17.682,15.1-.557,1.1-.815,2.733-2.535,2.057-1.908-.755-1.352-2.4-.7-3.737,4.274-8.727,10.923-14.77,20.515-17.394C3171.4,239.807,3175.172,238.863,3178.929,237.879Z" transform="translate(-2598.932 45.524)"/><path class="d" d="M3205.3,187.85h.417c-.02.089-.03.179-.05.268l-.318-.348Z" transform="translate(-2599.288 45.826)"/><path class="d" d="M3177.8,171.36c.129.1.249.209.378.308-.119.02-.249.03-.368.05.02-.129.04-.268.07-.4C3177.866,171.31,3177.8,171.36,3177.8,171.36Z" transform="translate(-2599.121 45.926)"/><path class="d" d="M3050.073,353.12c.04.278.089.557.129.835-.238-.05-.487-.1-.725-.159C3049.676,353.567,3049.875,353.339,3050.073,353.12Z" transform="translate(-2598.344 44.824)"/><path class="d" d="M2801.117,174.208c.268-.229.547-.6.855-.109.06.1-.228.417-.348.636C2801.455,174.556,2801.286,174.387,2801.117,174.208Z" transform="translate(-2596.839 45.91)"/><path class="d" d="M2816.447,284.471c.487-.517.984-1.024,1.471-1.541C2817.928,283.914,2818.326,285.256,2816.447,284.471Z" transform="translate(-2596.932 45.249)"/><path class="d" d="M2788.553,3.868c-.388,3.409-.964,3.827-5,3.668-1.153-2.356-.606-3.439,2.008-3.638C2786.535,3.828,2787.549,3.222,2788.553,3.868Z" transform="translate(-2596.729 46.942)"/><path class="d" d="M3107.406,636.359a14.251,14.251,0,0,1-.219,2.057,1.874,1.874,0,0,1-1.978,1.66,1.655,1.655,0,0,1-1.6-1.948c.219-3.578.04-6.9-3.8-8.786a1.319,1.319,0,0,1-.388-1.938,1.832,1.832,0,0,1,2.445-.8c3.161,1.213,4.6,3.8,5.348,6.848A18.662,18.662,0,0,1,3107.406,636.359Z" transform="translate(-2598.645 43.169)"/></g><g transform="translate(3174.216 169.97)"><path class="d" d="M3205.666,188.118c.02-.089.03-.179.05-.268h-.3Z" transform="translate(-3177.91 -171.394)"/><path class="d" d="M3177.8,171.708c.119-.02.249-.03.368-.05-.107-.083-.208-.171-.314-.256C3177.835,171.5,3177.82,171.609,3177.8,171.708Z" transform="translate(-3177.743 -171.295)"/><path class="d" d="M3177.743,171.294l.044.056.064.052c0-.031.011-.062.016-.091C3177.823,171.306,3177.786,171.3,3177.743,171.294Z" transform="translate(-3177.743 -171.294)"/><path class="d" d="M3205.333,187.764c-.014.029-.02.057-.036.085h.122l-.073-.08Z" transform="translate(-3177.91 -171.394)"/></g><g transform="translate(3201.604 186.34)"><path class="d" d="M3205.666,188.118c.02-.089.03-.179.05-.268h-.3Z" transform="translate(-3205.298 -187.765)"/><path class="d" d="M3205.333,187.764c-.014.029-.02.057-.036.085h.122l-.073-.08Z" transform="translate(-3205.297 -187.764)"/></g><g transform="translate(3163.591 126.491)"><path class="e" d="M3204.688,184.357c-2.365-6.888-6.2-12.842-12.176-17.175a123.716,123.716,0,0,1-19.193-17.692c-1.888-2.107-3.329-4.642-5.814-6.6-1.173,3.737.129,6.719,1.709,9.552a77.127,77.127,0,0,0,9.144,13.15c3.578,4.1,7.117,8.617,12.076,10.943a38.748,38.748,0,0,1,11.45,8.16c.971,1.011,1.716,2.346,3.217,2.8C3205.65,186.374,3205.027,185.355,3204.688,184.357Z" transform="translate(-3167.052 -127.643)"/><path class="e" d="M3205.333,187.764c-.014.029-.02.057-.036.085h.122l-.073-.08Z" transform="translate(-3167.284 -127.915)"/><path class="e" d="M3205.666,188.118c.02-.089.03-.179.05-.268h-.3Z" transform="translate(-3167.284 -127.915)"/><path class="e" d="M3170.322,213.5c-2.017,4.751-.526,6.888,4.89,7,2.912-1.133,4.165-3.668,5.109-6.292a80.563,80.563,0,0,0,3.817-15.168c.954-6.361.885-6.371-5.348-7.991a2.51,2.51,0,0,0-.546.089c.159,5.347-2.376,9.959-4.513,14.71C3172.588,208.394,3170.888,210.71,3170.322,213.5Z" transform="translate(-3167.067 -127.935)"/><path class="e" d="M3194.225,127.55c-1.66.924-1.948,2.276-2.375,3.529a26.415,26.415,0,0,0-.567,13.627c1.819,9.78,3.916,19.292,11.221,27.025a28.744,28.744,0,0,1,7.315,17.056c.338,3.4,1.2,6.52,4.314,9.085,0-6.192-.388-12.146.109-18.02.527-6.321-1.412-11.54-4.791-16.758-6.292-9.711-11.38-20.018-13.955-31.379C3195.189,130.343,3194.682,129.021,3194.225,127.55Z" transform="translate(-3167.195 -127.55)"/></g><g transform="translate(3150.76 72.609)"><path class="e" d="M3166.626,162.693c-.073,1.672.127,4.78,1.061,5.176,1.044.444,8.722.746,8.722.746s-6.577-7.949-7.043-8.415S3166.695,161.1,3166.626,162.693Z" transform="translate(-3154.219 -73.866)"/><path class="e" d="M3205.666,188.118c.02-.089.03-.179.05-.268h-.3Z" transform="translate(-3154.454 -74.034)"/><path class="e" d="M3170.322,213.5c-2.017,4.751-.526,6.888,4.89,7,2.912-1.133,4.165-3.668,5.109-6.292a80.563,80.563,0,0,0,3.817-15.168c.954-6.361.885-6.371-5.348-7.991a2.51,2.51,0,0,0-.546.089c.159,5.347-2.376,9.959-4.513,14.71C3172.588,208.394,3170.888,210.71,3170.322,213.5Z" transform="translate(-3154.236 -74.053)"/><path class="e" d="M3204.688,184.357c-2.365-6.888-6.2-12.842-12.176-17.175a123.716,123.716,0,0,1-19.193-17.692c-1.888-2.107-3.329-4.642-5.814-6.6-1.173,3.737.129,6.719,1.709,9.552a77.127,77.127,0,0,0,9.144,13.15c3.578,4.1,7.117,8.617,12.076,10.943a38.748,38.748,0,0,1,11.45,8.16c.971,1.011,1.716,2.346,3.217,2.8C3205.65,186.374,3205.027,185.355,3204.688,184.357Z" transform="translate(-3154.221 -73.761)"/><path class="e" d="M3205.333,187.764c-.014.029-.02.057-.036.085h.122l-.073-.08Z" transform="translate(-3154.453 -74.033)"/><path class="e" d="M3194.225,127.55c-1.66.924-1.948,2.276-2.375,3.529a26.415,26.415,0,0,0-.567,13.627c1.819,9.78,3.916,19.292,11.221,27.025a28.744,28.744,0,0,1,7.315,17.056c.338,3.4,1.2,6.52,4.314,9.085,0-6.192-.388-12.146.109-18.02.527-6.321-1.412-11.54-4.791-16.758-6.292-9.711-11.38-20.018-13.955-31.379C3195.189,130.343,3194.682,129.021,3194.225,127.55Z" transform="translate(-3154.365 -73.668)"/><path class="d" d="M3273.1,96.171a5.058,5.058,0,0,1-4.025.7,11.924,11.924,0,0,0-9.423,1.521c-5.526,3.688-11.241,7.087-16.877,10.605q-3.181,1.986-6.362,3.969l1.825,3.162a.909.909,0,1,1-1.575.909l-1.794-3.107-4.659,2.906,1.826,3.163a.909.909,0,1,1-1.575.909l-1.8-3.109-5.147,3.21,1.847,3.2a.909.909,0,1,1-1.575.909l-1.815-3.145q-2.885,1.8-5.771,3.6l1.853,3.208a.909.909,0,1,1-1.575.909l-1.821-3.153q-5.817,3.636-11.632,7.278c-2.137,1.352-3.33,1.64-3.767-1.451-.328-2.356-1.322-4.622-1.918-6.948-.636-2.495-2.147-2.9-4.274-1.859-1.2.586-2.266,1.63-3.519,1.9-4.016.875-6.252,2.455-6.719,6.073-.348,2.723-.457,4.93-3.2,6.848-2.5,1.739-1.64,5.159-1.113,7.961.119.616.447,1.252-.249,1.65-.736.427-1.173-.219-1.561-.666-2.2-2.544-4.333-5.149-6.55-7.673-.895-1.024-1.083-3.151-3.081-2.584-1.729.487-2.385,2.127-3.012,3.757-1.64,4.274-.278,8.23,1.044,12.216.507,1.308.8,1.372.259,1.8-.155.124-.287.054-.406-.1a7.474,7.474,0,0,0-1.656-1.669c-2.088-1.422-4.283-2.788-6.814-1.083-3.1,2.077-2.455,5.437-1.829,8.568s2.266,5.765,3.916,8.439c1.222,1.968,3.161,3.906,2.435,6.48-1.332,4.711-2.266,9.5-3.23,14.283-.169,1.193-.348,2.4-.517,3.6.149,1.143-.258,2.4.646,3.857a5.568,5.568,0,0,0,.6-4.1c-.258-2.445.854-3.161,3.081-2.843.686-3.638,1.1-7.325,2.5-11.112,3.608,3.151,6.371,6.689,9.781,9.592,1.521,1.292.715,3.538.238,5.3-1.411,5.149-3.986,9.8-6.61,14.412-.507,1.362-1.033,2.7-1.5,4.075-2,5.884.547,10.108,6.779,11.212a28.322,28.322,0,0,0,3.449.209c4.364-1.839,6.47-5.556,7.892-9.671a90.057,90.057,0,0,0,4.4-19.859,18.881,18.881,0,0,1,7.961,10.456c2.425,7.246,3.9,14.631-.676,21.767-.795,1.252-.994,2.733.6,3.529,1.7.855,2.674-.288,3.519-1.67,7.922-13.011-.08-37.382-16.778-40.96-9.6-2.057-17.96-10.377-20.386-18.805,3.549.616,6.212,2.853,9.313,3.986,5.834,2.137,11.341,5.059,17.275,7.047,2.594.865,4.9,2.922,6.968,4.821,3.409,3.121,6.65,6.451,9.741,9.89,7.494,8.319,8.846,18.5,9.433,29.142.537,9.641-2.763,16.619-10.436,22.731-7.2,5.725-13.2,12.921-19.73,19.471a13.834,13.834,0,0,1-1.133,1.471,131.965,131.965,0,0,0-17.772,22.036c-2.385,3.638-4.284,7.4-4.791,11.808a168.379,168.379,0,0,0,1.034,43.475c4.5,30.882,3.688,61.933,3.737,92.973.169,6.371.387,12.742.487,19.163.457,27.184-.119,54.389,3.022,81.493,2.684,23.169,3.936,46.467,5.834,69.705.517,6.381.735,12.772.825,19.173,3.658-1.064,4.145-3.459,4.006-6.61-.3-6.8-1.262-13.537-1.63-20.316-.865-15.774-2.167-31.508-3.568-47.232-1.083-12.076-2.7-24.123-3.369-36.229-1.3-23.616-.915-47.272-1.342-70.908-.139-8.15-.606-16.311-.1-24.461a.346.346,0,0,1,.04-.547c0-.626.01-1.252.01-1.879-.1-6.8-.388-13.587-.278-20.376.308-19.521-1.869-38.833-4.493-58.146a178.268,178.268,0,0,1-.805-35.076,28.8,28.8,0,0,1,5.536-15.128c4.622-6.51,9.164-13.08,15.078-18.557,8.359-9.293,17.454-17.871,26.539-26.459,3.4-3.21,6.391-6.789,6.749-11.719a145.589,145.589,0,0,0-.318-26.9,161.926,161.926,0,0,1-.348-25.037c.288-6.5-.358-12.673-4.135-18.328-2.674-4.006-4.831-8.349-7.355-12.454-1.014-1.66-.9-2.535.865-3.638,5.725-3.578,11.331-7.335,16.976-11.043,14.383-9.442,28.725-18.925,43.147-28.288a6.59,6.59,0,0,0,3.379-5.954c-.05-2.127.945-3.1,2.664-4.075,12.385-7.037,24.106-15.009,36.45-22.105,1.163-.666,1.178-1.014,2.432-2.326C3299.4,80.993,3286.242,88.577,3273.1,96.171Zm-94.4,94.166c6.232,1.62,6.3,1.63,5.348,7.991a80.563,80.563,0,0,1-3.817,15.168c-.944,2.624-2.2,5.159-5.109,6.292-5.417-.109-6.908-2.246-4.89-7,.567-2.793,2.266-5.109,3.41-7.653,2.137-4.751,4.671-9.363,4.512-14.71A2.509,2.509,0,0,1,3178.7,190.337Zm6.929-57.372.8-2.89a3.533,3.533,0,0,1,1.077-1.74.749.749,0,0,1,.321-.206,1.984,1.984,0,0,1,1.721,2.366l-.976,5.185a.887.887,0,0,1-1.569.44l-1.326-1.643A1.254,1.254,0,0,1,3185.626,132.965Zm-18.015,34.379c-.933-.4-1.133-3.5-1.061-5.176.069-1.591,2.272-2.958,2.739-2.492s7.043,8.415,7.043,8.415S3168.656,167.788,3167.611,167.344Zm37.744,20.081-.246-.268h-.122c.016-.029.022-.057.036-.085-1.5-.451-2.245-1.786-3.217-2.8a38.748,38.748,0,0,0-11.45-8.16c-4.96-2.326-8.5-6.848-12.076-10.943a77.129,77.129,0,0,1-9.144-13.15c-1.58-2.833-2.883-5.815-1.709-9.552,2.485,1.958,3.926,4.493,5.814,6.6a123.728,123.728,0,0,0,19.193,17.692c5.973,4.334,9.81,10.287,12.176,17.175.339,1,.962,2.017.414,3.135l.014.006.073.08h.3C3205.385,187.246,3205.375,187.335,3205.355,187.425Zm3.876-24.66c3.38,5.218,5.318,10.436,4.791,16.758-.5,5.874-.109,11.828-.109,18.02-3.111-2.564-3.976-5.685-4.314-9.085a28.746,28.746,0,0,0-7.316-17.056c-7.305-7.733-9.4-17.245-11.221-27.025a26.418,26.418,0,0,1,.567-13.627c.427-1.252.715-2.6,2.376-3.528.457,1.471.964,2.793,1.272,4.165C3197.851,142.747,3202.939,153.054,3209.231,162.765Z" transform="translate(-3154.143 -73.34)"/></g></g></g></svg>