<svg xmlns="http://www.w3.org/2000/svg" width="781.765" height="969.106" viewBox="0 0 781.765 969.106"><defs><style>.a,.e{fill:#ffd7a0;}.a{opacity:0.31;}.b{fill:#ffc4ad;}.c{fill:#222021;}.d{fill:#fff;}</style></defs><g transform="translate(-263.253 377.586)"><path class="a" d="M288.327-146.187c-.246-59.857,16.852-111.816,51.5-157.5,15.688-20.685,33.953-39.345,57.191-52.012,38.411-20.934,76.782-20.106,114.981.818,24.412,13.374,44.319,31.872,61.945,53.2,23.215,28.082,40.476,59.582,54.824,92.866,9.046,20.991,17.557,42.155,23.541,64.269a428.993,428.993,0,0,1,12,58.9c6.463,51.779-4.282,99.911-31.8,144.067-30.795,49.409-75.629,80.572-130.9,96.886-23.79,7.021-48.172,8.005-72.188-.2-17.926-6.127-32.74-17.128-46.157-30.163-21.529-20.911-36.935-46.014-49.222-73.116a522.587,522.587,0,0,1-33.793-99.249c-4.485-19.585-7.231-39.448-9.319-59.432C289.484-120.744,288.869-134.647,288.327-146.187Z" transform="translate(58.278 15.323)"/><path class="b" d="M726.1-77.24c-.565,21.706-2.161,42.713-4.179,63.707-1.9,19.754-4.332,39.438-7.583,59-4.691,28.242-10.921,56.167-17.69,83.983-5.342,21.955-10.795,43.86-19.3,64.871-8.993,22.231-21.267,42.145-40.635,56.952C621.385,263,604.088,269.238,584.7,268.387c-17.071-.748-31.672-8.088-44.924-18.428-17.969-14.026-32.211-31.43-45.286-49.9-29.136-41.147-49.2-86.719-65.32-134.193A630.45,630.45,0,0,1,408.249-13.54a392.319,392.319,0,0,1-7.417-94.645c1.945-43.524,17.9-81.061,49.99-110.839,12.65-11.739,25.788-23.142,40.665-32.258,11.257-6.895,23.757-10.05,36.387-12.862,10.961-2.44,21.869-5.15,33.105-6.237a113.836,113.836,0,0,1,25.023.439c14.016,1.735,28.2,2.932,41.716,7.237,29.867,9.518,55.9,24.611,71.636,53.1,8.883,16.084,13.853,33.717,17.969,51.523,4.036,17.477,6.074,35.256,7.4,53.135C725.429-95.508,725.728-86.067,726.1-77.24Z" transform="translate(318.917 248.055)"/><g transform="translate(263.253 -377.586)"><path class="c" d="M624.424,269.643c.485-34.761-10.685-64.924-32.676-92.065a10.219,10.219,0,0,1,5.366,3.677c11.493,13.052,18.933,28.335,24.019,44.777,4.418,14.285,7.121,28.9,5.668,44.345a332.632,332.632,0,0,0,78.93,8.321A289.886,289.886,0,0,0,784.1,266.674c-3.118-23.857,3.348-45.083,16.094-64.608l1.888.465c-9.541,19.88-18.248,39.944-14.415,62.936a232.578,232.578,0,0,0,24.994-9.132c15.09-6.287,29.259-14.312,43.228-22.726a3.258,3.258,0,0,0,1.426-2.287c5.425-16.277,8.833-33.075,11.9-49.881,2.217-12.164,1.124-24.611-.239-36.935-1.07-9.7-2.975-19.036-8.514-27.347-5.891-8.846-14.385-14.5-23.278-19.8-13.225-7.889-27.66-13.035-41.769-18.96-20.356-8.544-40.778-16.988-59.565-28.8C716.622,37.511,706.149,20.256,704.128-2.47a340.835,340.835,0,0,1,.013-60.586c.362-4.089.535-8.2.791-12.257a.984.984,0,0,0-1.313.356c-9.056,10.14-21.16,13.072-33.953,14.305-18.318,1.765-36.024-1.559-53.687-6.077-15.712-4.016-30.645-9.478-43.551-19.535-7.543-5.878-13.278-13.434-18.571-21.277-17.131-25.392-28.464-53.242-35.206-83.089A208.731,208.731,0,0,1,513.1-239.1c.116-10.382.928-20.748,3.491-30.874.449-1.782.545-3.873,2.626-5.123,2.168,2.573.289,5.176-.053,7.51-2,13.68-3.105,27.337-2.158,41.207,2.364,34.578,11.975,67.025,28.069,97.6A158.669,158.669,0,0,0,567.99-95.363c7.311,8.015,16.536,13,26.257,17.218,16.187,7.025,33.195,10.811,50.705,12.6,5.881.6,11.712,2.058,17.593,2.254,15.845.532,30.373-2.816,41.141-15.791a121.243,121.243,0,0,0,11.449-15.466c4.688-7.925,8.94-16.09,12.9-24.4.715-1.5,1.287-3.065,1.9-4.548-1.722-1.6-3.713-1.838-5.449-2.6-43.275-18.96-73.844-50.306-92.148-93.867-8.135-19.362-12.5-39.691-16.882-60.073-3.2-14.93-7.989-29.4-15.695-42.61-4.442-7.623-11.832-11.971-20.675-12.942-12.434-1.37-22.035,3.042-27.534,14.807-.545,1.167-1.124,2.4-2.623,1.712-1.6-.728-.808-2.094-.322-3.142,6.39-13.78,17.6-18.351,31.7-16.729a18.939,18.939,0,0,1,7.4,2.094c-7.058-8.308-18.152-10.854-27.706-5.814-9.378,4.95-15.771,12.53-15.808,24.046-2.836-.572-2.939-2.121-2.879-3.72a20.166,20.166,0,0,1,4.288-11.7c6.576-8.664,14.548-15.309,26.034-14.545,9.947.658,17.437,6.646,23.76,13.95,10.954,12.656,16.177,28.109,20.771,43.787,4.634,15.821,6.832,32.234,11.543,48.062,10.356,34.821,28.255,64.788,56.387,88.129,17.178,14.259,36.2,25.432,58.006,30.994,11.912,3.035,24.186,3.078,36.426,2.261,3.733-.249,7.464-.552,11.9-.884-6.13,6.1-37.437,5.492-57.647-.479-3.474,8.753-8.135,16.945-12.61,25.23-1.782,3.291-3.431,6.878-6.007,9.471-5.063,5.1-5.7,11.356-6.243,17.869a467.56,467.56,0,0,0-1.326,54.851c.349,10.027,1.473,20.007,4.531,29.644,4.385,13.817,13.667,23.77,25.466,31.549,14.884,9.811,31.237,16.759,47.454,23.963,14.767,6.559,30.153,11.666,44.618,18.91a132.545,132.545,0,0,1,24.585,15.306c11.9,9.681,17.38,22.616,19.023,37.407.947,8.537,1.353,17.124,1.646,25.728.369,10.828-2.527,21.037-4.754,31.41-9.914,46.194-27.094,89.868-45.439,133.219-21.18,50.054-44.734,98.993-67.743,148.2-3.551,7.59-8.241,14.481-12.992,21.343a16.158,16.158,0,0,1-13.065,7.337,14.39,14.39,0,0,1-3.258.15c-7.324-1.326-13.81.851-20.4,3.91a126.682,126.682,0,0,1-30.825,10.013c-7.886,1.416-15.8,1.872-23.647-.811a52.891,52.891,0,0,0-17.507-2.384c-33.1.123-66.211-.429-99.3.279-27.158.578-54.309-.492-81.447.515q-26.529.987-53.069,1.536c-4.465.1-8.936.678-13.424.6-2.527-.047-4.747,2.763-7.214,1.356-2.859-1.632-5.825-1.187-8.773-1.469-10.572-1.007-21.214-1.453-31.649-3.594-2.138-.435-4.671-.18-6.18-2.55.924-2.171,2.556-1.7,4.245-1.34,11.027,2.324,22.248,3.022,33.444,3.926,1.552.123,3.125.017,4.967.017.858-9.751,5.981-17.872,9.285-26.719-3.71,4.96-7.334,9.993-11.17,14.854a78.726,78.726,0,0,1-6.443,6.888c-1.941,1.928-4.481,2.9-6.975,1.739a7.161,7.161,0,0,1-4.159-6.732,32.455,32.455,0,0,1,3.288-13.969c7.5-16.775,15.884-33.052,27.075-47.743.678-.891,2.523-1.932,1.16-3.325-1.439-1.473-2.669.246-3.68,1.024-8.993,6.918-16.24,15.585-23.69,24.029-4.967,5.628-9.711,11.45-14.561,17.174-.389.462-.841.874-1.273,1.3-2.134,2.074-4.428,4.249-7.61,2.593-3.288-1.709-3.5-5.05-3.108-8.258.695-5.728,3.172-10.848,5.921-15.835,13.936-25.279,34.043-44.392,58.847-58.787,1.167-.675,2.64-2.008,3.79-.183,1.393,2.207-.891,2.636-2.091,3.321-25.08,14.332-44.931,33.81-58.584,59.409a35.316,35.316,0,0,0-3.79,9.654c3.78.017,4.907,1.975,3.338,6.433,4.066-3.65,6.373-7.247,9.126-10.446,9.558-11.107,18.753-22.56,30.077-32a32.484,32.484,0,0,1,3.554-2.517c2.47-1.553,4.924-1.692,6.619,1.007,1.473,2.337,1.885,4.335-.7,6.932-3.358,3.378-5.831,7.69-8.424,11.762a238.649,238.649,0,0,0-19.831,38.205c-.578,1.416-1.44,2.836-.994,4.515,5.266-3.531,7.178-2.616,8.072,4.325,3.394-3.138,5.765-6.715,8.221-10.176,8.67-12.224,16.36-25.123,25.492-37.028a32.341,32.341,0,0,1,2.055-2.54c.918-.967,1.662-2.962,3.381-1.612,1.612,1.26.492,2.842-.323,4.2-2.669,4.451-5.4,8.87-8.005,13.358a361.245,361.245,0,0,0-17.085,33.085c-.731,1.619-1.679,3.231-1.543,5.14,4.388.615,4.558.951,3.039,7.065,1.609-1.366,2.882-2.3,3.966-3.414,1.18-1.21,2.2-2.573,3.271-3.9s2.074-2.673,3.135-3.989c8.657-10.761,15.722-22.64,23.737-33.85a85.061,85.061,0,0,1,7.962-9.88c1.017-1.051,2.211-1.862,3.487-.908,1.579,1.183.213,2.477-.475,3.444-5.685,7.992-10.894,16.247-14.638,25.353-.452,1.1-.771,2.254-1.184,3.474,2.38-.063,3.973.645,3.278,4.056,4.761-4.029,7.736-8.637,11.44-12.567a382.653,382.653,0,0,1,50.629-44.635c12.277-9.116,23.268-19.754,30.19-33.837,1.007-2.055,2.058-4.089,3.009-6.167.435-.954.911-1.858,2.088-1.456,1.413.482,1.187,1.752.781,2.753-1.034,2.547-2.214,5.033-3.431,7.763,3.148,1.473,6.147,2.962,9.212,4.3,32.726,14.229,63.824,31.712,95.636,47.773,27.813,14.039,55.808,27.773,85.479,37.62a90.6,90.6,0,0,0,24.053,4.907c6.882.342,11.686-2.274,15.7-8.152,9.894-14.462,16.7-30.432,24.1-46.151,21.439-45.526,42.693-91.128,61.945-137.637,7.746-18.717,15.352-37.474,21.549-56.769.283-.884,1.011-1.709.346-3.268a257.1,257.1,0,0,1-60.28,25.8c.552,5.858,1.15,11.5,1.606,17.151,1.519,18.9-6.267,34.076-19.056,47.178-7.194,7.37-15.04,14.069-22.051,21.656-13.8,14.94-23.3,32.563-32.268,50.559q-3.216,6.443-6.43,12.9c-35.914-14.488-73.262-23.587-110.087-34.272-32.357-9.385-65.06-17.6-97.936-25.047-10.841-2.457-21.081.15-31.041,3.92-8.481,3.211-16.982,6.516-25.848,8.128-10.18,1.848-19.967,4.977-29.95,7.454-2.656.662-4.023,1.945-4.4,4.628-.253,1.785-.159,4.93-2.387,4.465-3.039-.635-1.25-3.674-.831-5.529,4.066-18.009,10.283-35.369,16.283-52.786,8.913-25.858,16.606-52.131,26.247-77.74,4.84-12.856,10-25.592,15.163-38.321,1.067-2.643,1.054-4.106-1.742-5.778-32.879-19.678-61.689-44.319-87.6-72.437-2.606-2.829-4.937-5.911-7.61-9.136-4.81,13.348-7.241,26.928-10.559,40.27q-12.6,50.64-25.063,101.31c-7.683,31.084-15.15,62.234-23.873,93.043-6.23,22-12.693,43.93-17.587,66.27-2.327,10.612-4.358,21.41-3.351,32.334,1.572,17.065,9.392,30.193,25.452,37.6.931.429,2.424.758,1.895,2.188-.6,1.6-2.174,1.42-3.441.951a36.711,36.711,0,0,1-14.595-10.439c-10.725-12.008-14.438-26.12-12.63-41.978,3.391-29.734,12.63-58.046,20.615-86.693,7.912-28.394,14.974-57.025,21.982-85.665,9.235-37.753,18.993-75.376,28.009-113.179,3.8-15.931,8.65-31.606,11.855-47.657,3.687-18.464,7.992-36.709,14.671-54.355a237.51,237.51,0,0,1,23.278-46.5A44.425,44.425,0,0,1,426.886,6.952C439.618,1.8,452.5-2.34,466.527-1.393c12.979.878,24.89,5.372,36.729,10.293,12.414,5.156,25.253,9.312,38.724,9.774,19.974.688,37.627-11.533,42.128-32.54,3.105-14.5,6.263-29.046,5.977-44.03-.02-.961-.066-1.978,1.144-2.679,1.406,1.27,1.639,3.022,1.642,4.764A154.623,154.623,0,0,1,585.72-7.643C580.2,9.425,567.379,18.724,549.829,21.726c-8.447,1.446-16.646-.279-24.734-2.108-11.313-2.557-22.078-6.9-32.786-11.33C481.447,3.794,470.078.851,458.385,2.214c-21.676,2.53-41.8,8.411-53.458,29.555-7.3,13.241-14.076,26.676-19.432,40.845-5.216,13.793-8.707,28.045-12.208,42.314a5.763,5.763,0,0,0,1.792,6.054c38.4,38.534,80.446,72.4,127.581,99.731,36.825,21.353,75.622,37.959,117.085,48.036.585.143,1.16.329,1.749.445C622.2,269.331,622.914,269.414,624.424,269.643Zm86.443,237.432c-6.29-1.975-11.991-3.481-17.487-5.535a607.108,607.108,0,0,1-62.231-27.447,24.388,24.388,0,0,0-14.329-2.43c-13.344,1.529-26.616.389-39.844-1.07-13.89-1.533-27.753-3.288-41.566-5.522-19.432-3.138-38.617-6.918-56.327-16a3.484,3.484,0,0,0-4.232.382,302.728,302.728,0,0,0-49.016,45.226c-2.9,3.384-5.708,6.915-9.628,9.289-1.888,1.147-3.893,1.785-5.791.558-2.031-1.31-1.759-3.59-1.393-5.638.352-1.978.934-3.92,1.416-5.874-6.735,8.544-13.125,17.2-20.409,25.668,4.382.489,8.195-.4,12.021-.426,19.026-.113,38.025-1.084,57.038-1.536,24.837-.588,49.685.037,74.535-.3,34.408-.469,68.824-.326,103.235-.392a51.7,51.7,0,0,1,13.228,1.835c4.179,1.09,8.3,2.467,12.739,2.473C679.839,520.353,694.943,513.684,710.867,507.075ZM413.551,386.592c17.979-5.731,35.831-9.076,53.418-15.233-7.261-23.235-19.252-44.635-25.895-68.172C432.135,330.88,421.52,357.945,413.551,386.592Z" transform="translate(-212.592 444.872)"/><path class="c" d="M692.463,88.207c-3.308,4.541-7.736,3.757-11.872,2.759A54.175,54.175,0,0,1,661.8,82.722c-8.554-6.061-11.749-15.053-12.607-25.05-.7-8.2,1.576-15.761,5.352-22.969a243.92,243.92,0,0,1,31.041-45.02c20.971-24.555,34.531-52.66,41.433-84.153,6.679-30.469.851-59.375-9.87-87.886-9.638-25.629-27.56-43.312-51.569-55.453-5.914-2.992-11.649-6.4-17.74-8.97-20.04-8.457-34.3-23.105-45.253-41.4-5.033-8.4-10.166-16.745-14.89-25.316-15.143-27.48-38.351-44.5-68.159-53.069-16.666-4.791-33.607-8.1-51.031-7.277-29.6,1.4-57.926,7.563-82.717,24.874-9.6,6.7-17.693,15.01-22.078,26.277-.475,1.223-1.124,2.7-2.816,2.045-1.915-.741-.864-2.251-.4-3.384,5.326-13.079,14.864-22.61,26.473-30.01,18.91-12.055,39.7-18.926,62-21.436,9.139-1.031,18.268-2.566,27.467-1.975,31.081,2,60.629,9.009,85.948,28.381,12.985,9.93,22.381,22.919,30.336,37.111,7.739,13.81,15.539,27.587,25.8,39.824,7.334,8.743,16.423,14.841,26.453,19.894,11.632,5.864,23.424,11.443,34.492,18.374,19.674,12.324,33.165,29.555,41.34,51.234,7.118,18.88,12.311,38.2,12.63,58.428.422,26.719-7.071,51.692-18.487,75.612-7.982,16.726-18.817,31.506-30.8,45.549C673.669,9.227,665.7,23.24,657.4,36.974c-4.461,7.38-5.555,15.622-4.315,24.129,1.819,12.467,9.6,19.811,20.838,24.242C679.85,87.682,685.774,89.766,692.463,88.207Z" transform="translate(-38.86 377.586)"/><path class="c" d="M398.733-80.407a120.024,120.024,0,0,0,29.7-9.854c23.042-11.3,42.028-27.021,54.5-49.917a72.421,72.421,0,0,0,8.54-33.321c.193-7.364.406-14.761-1.27-22.035-.14-.608.043-1.2.928-1.692,2.769,1.848,2.713,5.106,3.068,7.8,1.769,13.335,1.27,26.619-3.175,39.405-6.2,17.839-17.646,32.025-31.865,44.189-18.827,16.107-41.067,24.867-64.7,30.991-15.017,3.89-30.027,8.032-45.163,11.17-16.509,3.427-31.636,9.116-45.559,18.4C283.882-32.023,271.415-13.7,267.7,9.833a104.3,104.3,0,0,0,4.259,49.049,33.035,33.035,0,0,0,6.958,11.35c.519.6,1.363,1.12.622,2.69a19.68,19.68,0,0,1-7.646-7.483c-4.515-7.211-6.3-15.379-7.294-23.631-1.067-8.87-1.8-17.769-1.017-26.782,1.636-18.906,8.79-35.386,21.686-49.089C301.213-51.012,321.1-61,343.736-66.235c18.042-4.175,36.044-8.687,52.776-17.148,23.062-11.662,40.851-28.315,50.748-52.583,6.177-15.15,8.61-31.077,9.339-47.334.652-14.471-1.652-28.684-3.328-42.982-3.437-29.319-2.916-58.238,11.373-85.21,7.849-14.817,18.94-26.134,35.333-31.436a31.4,31.4,0,0,1,17.141-.419c1.825.429,4.149.818,4.325,3.361a1.489,1.489,0,0,1-2,.838c-14.877-5.1-26.686,1.164-37.311,10.559-13.5,11.938-20.223,27.843-23.98,44.964-4.325,19.711-3.76,39.634-1.011,59.555,1.888,13.66,3.816,27.354,3.019,41.21-1.326,23.035-5.362,45.373-18.421,65.054a104.8,104.8,0,0,1-39,35.11C401.38-81.98,400.066-81.172,398.733-80.407Z" transform="translate(-263.253 454.877)"/><path class="c" d="M416.576-290.227c8.381.106,14.641,1.785,19.329,7.267,4.8,5.605,6.908,15.685-.848,22.261-10.3,8.737-27.7,11.822-39.472,6.247-4.142-1.961-7.716-4.661-9.289-9.186-1.4-4.036-.878-7.816,2.237-11.014,4.149-4.255,8.474-8.251,13.69-11.237C407.158-288.714,412.318-290.439,416.576-290.227Zm-8.7,20.083c4.465-.625,8.574.5,12.69-1.33C416.141-276.32,410.981-275.885,407.879-270.143Z" transform="translate(21.05 580.61)"/><path class="c" d="M466.039-256.491c1.6,2.088-.01,3.364-.818,4.707-8.793,14.618-6.775,32.62,4.987,44.063,15.449,15.033,42.956,17.909,58.75,5.552,7.234-5.655,10.289-13.92,10.173-23.182-.01-.761-.116-1.469.695-1.845a1.445,1.445,0,0,1,1.925.459c.582.775,1.18,1.539,1.715,2.344,20.485,30.728,19.159,70.1-10.216,98.973A56.448,56.448,0,0,1,509.7-111.537a8.231,8.231,0,0,1-6.011-.193c23.005-7.161,38.029-22.939,46.034-44.718,8.082-21.978,4.867-43.458-7.427-64.213-1,3.148-1.815,5.622-2.577,8.112-2.766,9.006-8.89,14.661-17.487,18.125-19.142,7.71-45.06,1.283-57.431-14.4a38.97,38.97,0,0,1-2.074-44.821C463.492-254.819,464.157-256.2,466.039-256.491Z" transform="translate(186.227 659.069)"/><path class="c" d="M350.329-166.048c1.28,2.114-.289,3.1-.908,4.265-4.711,8.846-6.436,17.979-2.035,27.387,3.108,6.639,7.839,11.835,15.086,14.262.938.316,2.294.482,2.237,1.985-.06,1.6-1.513,1.137-2.394,1.589-6.609,3.391-13.737,4.973-20.951,6.393-11.243,2.217-21.642-.286-31.31-5.838-19.468-11.174-32.49-27.254-35.934-49.927-4.4-28.94,4.089-53.431,26.134-72.959a37.188,37.188,0,0,1,8.979-5.389c1.127-.532,2.37-1.19,3.178.186.891,1.509-.505,2.151-1.549,2.709-20.389,10.918-30.575,29.229-33.577,50.941-4.362,31.536,7.513,59.828,41.456,74.671,11.735,5.13,23.421,2.477,35.07-.5,1.383-.352,2.716-.9,4.3-1.436-11.573-7.547-18.288-17.646-16.337-31.692C342.64-155.623,344.172-162.1,350.329-166.048Z" transform="translate(-240.597 685.981)"/><path class="c" d="M400.212-319.4c2.164,7.274,3.7,13.946,6.024,20.382,7.553,20.908,17.43,40.333,34,55.788A120.49,120.49,0,0,0,499-212.7c22.68,4.668,45.439,4.252,67.846-2.357,3.591-1.057,7.141-2.291,10.053-4.824a3.716,3.716,0,0,1,2.819-.8c.924,2.2-.685,3.1-1.988,4.056-4.89,3.614-10.668,5.236-16.42,6.4-40.133,8.148-78.022,3.408-111.952-21.054-18.9-13.63-32.371-31.712-40.931-53.441-3.724-9.448-7.361-18.9-9.046-28.976C399.019-315.885,398.986-315.878,400.212-319.4Z" transform="translate(52.667 512.84)"/><path class="c" d="M382.29-295.88c-6.639-.735-12.5-1.682-17.427-5.432.582-1.513,1.692-1.263,2.573-1.2,7.57.505,14.761-1.32,21.885-3.524,9.847-3.045,19.731-4.358,29.768-.891.794.276,1.619.475,2.394.8,1.011.419,2.071.868,1.9,2.281-.17,1.393-1.333,1.19-2.237,1.29-13.777,1.513-26.267,7.384-39.249,11.589-1.177.379-2.6,1.569-3.451-.15-.751-1.513.608-2.357,1.759-3.105C380.784-294.606,381.3-295.088,382.29-295.88Z" transform="translate(-27.061 537.023)"/><path class="c" d="M424.366-333.917c-4.847-5.967-10.7-10.19-16.692-14.289-6.513-4.461-13.561-5.336-21.094-3.667-13.557,3.005-24.641,9.421-28.2,23.78-3.1,12.493-1.849,24.545,8.059,34.249a20.516,20.516,0,0,0,2.251,1.825c.911.678,2.547,1.054,1.439,2.66-1.031,1.489-2.374.8-3.484.007-4.408-3.172-8.015-7.055-9.777-12.284-4.9-14.538-4.983-28.541,5.525-40.951,6.573-7.759,15.6-11.047,25.273-12.893,16.323-3.118,26.529,6.729,36.337,17.291C424.812-337.308,425.932-335.921,424.366-333.917Z" transform="translate(-53.093 427.61)"/><path class="c" d="M525.753-219.787a6.39,6.39,0,0,1-.023,4.325,57.374,57.374,0,0,1-48.837,41.5,22.393,22.393,0,0,1-5.758-.482c-1.06-.15-1.915-.635-1.785-1.838.126-1.157,1-1.536,2.094-1.523,25.472.342,40.649-13.876,50.519-35.665C522.914-215.568,523.293-218.058,525.753-219.787Z" transform="translate(215.788 744.387)"/><path class="c" d="M325.826-180.112a5.585,5.585,0,0,1-4.608,1.569c-9.5-.416-20.785-9.013-23.4-18.112-1.875-6.523-2.114-13.092.868-19.448a15,15,0,0,1,1.592-2.826c.682-.881,1.386-2.34,2.849-1.213,1.174.9.416,1.935-.193,2.872-3.7,5.675-3.757,11.878-2.287,18.138,2.1,8.949,12.38,17.264,21.573,17.813C323.433-181.246,324.9-181.754,325.826-180.112Z" transform="translate(-186.15 742.608)"/><path class="c" d="M370.236-370.376c-.492,2.922-2.53,4.082-3.664,5.791-6.227,9.4-9.165,19.781-9.787,30.931a16.458,16.458,0,0,0,.825,4.618c.259,1.15,1.1,2.48-.578,3.062-1.8.625-2.347-.954-2.69-2.184-.745-2.67-1.516-5.409-1.1-8.2,1.553-10.336,4.206-20.306,10.326-29.009A11.384,11.384,0,0,1,370.236-370.376Z" transform="translate(-54.342 394.344)"/><path class="d" d="M478.835-238.555c-2.181-5.432-5.279-9.791-10.522-12.161a.6.6,0,0,1,0-1.09c5.243-2.37,8.341-6.729,10.522-12.158a.6.6,0,0,1,1.11,0c2.161,5.429,5.093,9.787,10.316,12.158a.6.6,0,0,1,0,1.09c-5.223,2.37-8.155,6.729-10.316,12.158A.6.6,0,0,1,478.835-238.555Z" transform="translate(212.58 640.826)"/><path class="e" d="M491.7-259.565c-2.184-5.429-5.279-9.787-10.525-12.158a.6.6,0,0,1,0-1.094c5.243-2.367,8.338-6.729,10.522-12.158a.6.6,0,0,1,1.11,0c2.161,5.429,5.093,9.787,10.316,12.154a.6.6,0,0,1,0,1.094c-5.223,2.37-8.155,6.729-10.316,12.158A.6.6,0,0,1,491.7-259.565Z" transform="translate(242.482 591.992)"/></g></g></svg>